<svg xmlns="http://www.w3.org/2000/svg" width="4267" height="4267" baseProfile="tiny-ps" version="1.2"><title>Castor</title><path fill="#000000" d="M1521 0h8l4-1a1761 1761 0 0 1 99 0c32 0 32 0 46 10a814 814 0 0 0 5 3l4 3 2 2 26 21a431 431 0 0 0 8 7c9 9 19 18 27 28a1404 1404 0 0 0 3 3l23 28 1 2c42 52 42 52 55 78l7 12c8 11 14 23 21 35a2412 2412 0 0 0 32 63l3 5a1602 1602 0 0 1 49 105 1494 1494 0 0 0 26 56l1 3 1 3 1 2 1 4h2l1-2c7-18 18-33 28-49l38-64 14-24 8-14 4-6 8-12a4209 4209 0 0 1 23-37l7-11a11245 11245 0 0 1 21-33l8-12a3774 3774 0 0 1 27-41 7934 7934 0 0 0 6-10 928 928 0 0 1 108-139l2-2a218 218 0 0 1 12-11l3-4 7-1h20a5654 5654 0 0 1 30-1h102a7920 7920 0 0 1 40 0 3312 3312 0 0 0 62 0h3c4 0 7 0 10 3a81 81 0 0 1 9 10l2 4 2 2c11 15 22 31 31 47a515 515 0 0 0 2 4c18 31 35 64 48 97l1 2 14 36 1 2c30 79 37 162 39 246v4a1922 1922 0 0 1 2 21 14087 14087 0 0 0 8-9 1312 1312 0 0 0 12-12 278 278 0 0 1 12-13l5-6 12-12 3-3 4-5 8-7 5-5 2-2 12-11 9-9 12-11 7-7a300 300 0 0 1 23-19 426 426 0 0 1 27-22l28-21 4-2a4386 4386 0 0 1 44-30c25-17 49-33 76-46l3-2a375 375 0 0 1 103-36c19-3 38-2 56 3l2 1c15 4 29 11 42 20l2 2c14 10 26 23 35 37l1 2c13 20 22 42 30 64l1 3c18 50 17 108 18 160v3a2064 2064 0 0 1-34 356c-5 37-12 74-19 111l-1 3-12 64v4a6396 6396 0 0 1-4 16l-5 31v2c-1 10 8 20 13 28 14 19 26 40 36 61a670 670 0 0 0 5 8 886 886 0 0 1 43 102 2431 2431 0 0 1 75 214 925 925 0 0 0 5 17c20 66 26 133 26 202v3l-2 108v3c-2 51-9 102-15 152v3l-7 51a3780 3780 0 0 0 25-17l26-18a3676 3676 0 0 0 4-3 1473 1473 0 0 1 95-60 1110 1110 0 0 0 17-11c31-19 63-39 100-44h2l27-1h3a6465 6465 0 0 1 47 0c21-1 39 4 55 19 12 12 22 25 30 40l1 2c14 27 15 54 15 83v4l-3 100-1 2c-1 23-5 45-11 67l-1 7c-8 33-16 66-27 99l-1 2c-15 48-38 94-62 137a891 891 0 0 0-6 12 1027 1027 0 0 1-29 51 1525 1525 0 0 1-25 41l-5 8-29 43a3031 3031 0 0 0-6 10l-12 17-2 3c-14 21-30 42-45 62l-1 2-32 38a877 877 0 0 0-4 5 518 518 0 0 1-49 53 8510 8510 0 0 1-11 11l-9 10a8307 8307 0 0 1-8 7 3865 3865 0 0 0-22 21 279 279 0 0 0-4 4l-2 1-2 2a261 261 0 0 1-24 21c-22 21-47 38-72 56l-12 9-4 3a7447 7447 0 0 0-10 8 1489 1489 0 0 1-32 23 1081 1081 0 0 1-31 21 749 749 0 0 0-6 5 185 185 0 0 1-21 12l-21 12a17858 17858 0 0 1-5 4l-2 1-2 1c-14 9-29 17-45 25l-1 1-19 9 4 16 1 3 4 10c3 7 5 13 6 20l9 34c9 27 17 55 24 83l1 3c26 102 45 207 59 533l2 54v3l2 28 1 3c0 5 1 8 4 12l2 3 7 6 11 10a228 228 0 0 0 10 8 294 294 0 0 1 21 18l13 13a1309 1309 0 0 0 7 6l38 37a9020 9020 0 0 0 18 17l3 4 17 17 8 9 16 19 3 4c20 24 37 51 46 81v2c3 11 4 22 4 33v3c0 10-1 19-3 28l-1 2c-5 18-13 35-25 50l-2 3c-11 13-23 27-37 38l-5 5c-9 9-17 9-30 9a9503 9503 0 0 1-106 0h-55a38705 38705 0 0 1-195 0h-103a492306 492306 0 0 0-14 0 17400 17400 0 0 0-131 0 668 668 0 0 0-9 0c-15 0-25 0-37-10a583 583 0 0 0-6-4c-31-24-61-61-67-101l-1-29v-3a3602 3602 0 0 1 0-18c0-48 8-90 29-133-16-6-33-10-50-14a3187 3187 0 0 1-21-5 8812 8812 0 0 0-15-4l-11-2a846 846 0 0 0-85-16l-3-1c-72-10-144-18-217-21h-2a1467 1467 0 0 0-83-2h-3l-116 3h-7a2333 2333 0 0 0-269 29 2221 2221 0 0 1-15 3c-51 11-103 24-153 40l4 26c2 13 5 26 6 40l1 3c7 53 0 104-32 147l-2 3c-12 16-28 29-44 41l-3 3c-12 8-26 14-39 21l-2 2c-6 2-10 1-16 1h-24l-21 1h-26a35611 35611 0 0 1-91 0 103790 103790 0 0 1-126 0h-3a44406 44406 0 0 0-207 0h-18a12402 12402 0 0 0-94 1 2954 2954 0 0 0-28 0h-19a480 480 0 0 0-10 0c-20 0-34-4-51-15l-3-2-13-9a269 269 0 0 0-5-3c-17-12-33-29-44-46l-1-2c-9-13-16-27-20-42l-1-2a144 144 0 0 1-5-49c-1-16 2-31 7-46l1-3c6-17 15-33 26-47l2-3c12-15 26-28 41-39l4-3c27-20 56-38 85-55l3-2 75-41 2-1 47-23 3-2 10-3-1-2c-40-74-61-162-64-246v-3l-1-68v-9l1-79v-9a1963 1963 0 0 1 2-42c4-73 24-147 40-218a307 307 0 0 0-23 13 777 777 0 0 1-48 26l-35 19-3 2-2 1a1943 1943 0 0 0-65 34c-67 35-138 60-213 71l-3 1a431 431 0 0 1-73 3c-42 0-77-7-108-37-14-15-23-32-29-51l-1-2a179 179 0 0 1-5-62c0-95 51-185 106-259l2-3 14-18 2-2a1118 1118 0 0 1 52-63 430 430 0 0 0 6-6l12-14 5-5 2-3a1795 1795 0 0 0 43-46l5-6 15-15 3-3 2-2 5-5 15-16 3-4 9-9 10-9a47504 47504 0 0 1 109-107c9-9 19-16 29-23l2-2c28-20 57-37 87-53l7-3 6-4 3-1 3-2 2-1 4-1v-2l-2-1-5-4-7-7-16-14-7-7c-15-13-28-27-42-41a8821 8821 0 0 0-20-20 5183 5183 0 0 0-4-4l-19-20a279 279 0 0 0-4-4l-1-2-2-2a290 290 0 0 1-20-22c-26-33-46-70-65-107l-2-4-25-60a1077 1077 0 0 0-8-20l-2-5a796 796 0 0 0-4-8l-5-19-6-20-13-43-1-7-16-72-1-2a2879 2879 0 0 1-6-33v-2c-7-34-7-34-8-51v-4c-2-21-2-43-2-64v-6a12897 12897 0 0 1 0-35c0-47 0-92 9-137l1-3a3477 3477 0 0 1 4-20l2-10c6-27 13-54 22-81a2061 2061 0 0 0 5-16c15-48 15-48 25-69l4-11 1-2 2-4a1267 1267 0 0 1 15-37l7-16 18-41a2625 2625 0 0 0 5-9 1195 1195 0 0 1 52-95l1-3c9-16 12-25 7-42-8-25-25-47-39-68l-2-3-4-5-1-3-2-3c-16-23-31-47-44-72l-1-3c-12-22-20-47-28-71l-2-7a836 836 0 0 1-26-105l-1-4-2-11v-2l-7-39-1-6a4981 4981 0 0 1-18-142v-6l-1-18v-3l-1-72a6598 6598 0 0 0 0-9 3303 3303 0 0 1 0-20c0-44 13-85 44-117 7-7 14-12 23-17l2-1c22-12 45-14 70-14h3c15 0 30 0 45 3l4 1c62 10 122 33 176 64a587 587 0 0 0 8 5l33 19a901 901 0 0 0 7 5 1531 1531 0 0 1 123 86 1427 1427 0 0 0 14 10 1485 1485 0 0 1 20 16l2 2 16 12 2 1 26 21 10 9a2683 2683 0 0 1 16 13l12 9v-15c0-28 4-55 8-83l3-14a9344 9344 0 0 1 4-26 4242 4242 0 0 0 2-18l12-63 1-8 3-11a1570 1570 0 0 0 5-22c14-73 33-145 62-213l2-4c15-34 31-69 54-100l1-2 20-23 2-2 16-14 2-2a2430 2430 0 0 1 7-5l3-2 2-2 2-2c4-3 7-4 13-4Z"/><path fill="#FEFEFE" d="M1521 0h8l4-1a1761 1761 0 0 1 99 0c32 0 32 0 46 10a814 814 0 0 0 5 3l4 3 2 2 26 21a431 431 0 0 0 8 7c9 9 19 18 27 28a1404 1404 0 0 0 3 3l23 28 1 2c42 52 42 52 55 78l7 12c8 11 14 23 21 35a2412 2412 0 0 0 32 63l3 5a1602 1602 0 0 1 49 105 1494 1494 0 0 0 26 56l1 3 1 3 1 2 1 4h2l1-2c7-18 18-33 28-49l38-64 14-24 8-14 4-6 8-12a4209 4209 0 0 1 23-37l7-11a11245 11245 0 0 1 21-33l8-12a3774 3774 0 0 1 27-41 7934 7934 0 0 0 6-10 928 928 0 0 1 108-139l2-2a218 218 0 0 1 12-11l3-4 7-1h20a5654 5654 0 0 1 30-1h102a7920 7920 0 0 1 40 0 3312 3312 0 0 0 62 0h3c4 0 7 0 10 3a81 81 0 0 1 9 10l2 4 2 2c11 15 22 31 31 47a515 515 0 0 0 2 4c18 31 35 64 48 97l1 2 14 36 1 2c30 79 37 162 39 246v4a1922 1922 0 0 1 2 21 14087 14087 0 0 0 8-9 1312 1312 0 0 0 12-12 278 278 0 0 1 12-13l5-6 12-12 3-3 4-5 8-7 5-5 2-2 12-11 9-9 12-11 7-7a300 300 0 0 1 23-19 426 426 0 0 1 27-22l28-21 4-2a4386 4386 0 0 1 44-30c25-17 49-33 76-46l3-2a375 375 0 0 1 103-36c19-3 38-2 56 3l2 1c15 4 29 11 42 20l2 2c14 10 26 23 35 37l1 2c13 20 22 42 30 64l1 3c18 50 17 108 18 160v3a2064 2064 0 0 1-34 356c-5 37-12 74-19 111l-1 3-12 64v4a6396 6396 0 0 1-4 16l-5 31v2c-1 10 8 20 13 28 14 19 26 40 36 61a670 670 0 0 0 5 8 886 886 0 0 1 43 102 2431 2431 0 0 1 75 214 925 925 0 0 0 5 17c20 66 26 133 26 202v3l-2 108v3c-2 51-9 102-15 152v3l-7 51a3780 3780 0 0 0 25-17l26-18a3676 3676 0 0 0 4-3 1473 1473 0 0 1 95-60 1110 1110 0 0 0 17-11c31-19 63-39 100-44h2l27-1h3a6465 6465 0 0 1 47 0c21-1 39 4 55 19 12 12 22 25 30 40l1 2c14 27 15 54 15 83v4l-3 100-1 2c-1 23-5 45-11 67l-1 7c-8 33-16 66-27 99l-1 2c-15 48-38 94-62 137a891 891 0 0 0-6 12 1027 1027 0 0 1-29 51 1525 1525 0 0 1-25 41l-5 8-29 43a3031 3031 0 0 0-6 10l-12 17-2 3c-14 21-30 42-45 62l-1 2-32 38a877 877 0 0 0-4 5 518 518 0 0 1-49 53 8510 8510 0 0 1-11 11l-9 10a8307 8307 0 0 1-8 7 3865 3865 0 0 0-22 21 279 279 0 0 0-4 4l-2 1-2 2a261 261 0 0 1-24 21c-22 21-47 38-72 56l-12 9-4 3a7447 7447 0 0 0-10 8 1489 1489 0 0 1-32 23 1081 1081 0 0 1-31 21 749 749 0 0 0-6 5 185 185 0 0 1-21 12l-21 12a17858 17858 0 0 1-5 4l-2 1-2 1c-14 9-29 17-45 25l-1 1-19 9 4 16 1 3 4 10c3 7 5 13 6 20l9 34c9 27 17 55 24 83l1 3c26 102 45 207 59 533l2 54v3l2 28 1 3c0 5 1 8 4 12l2 3 7 6 11 10a228 228 0 0 0 10 8 294 294 0 0 1 21 18l13 13a1309 1309 0 0 0 7 6l38 37a9020 9020 0 0 0 18 17l3 4 17 17 8 9 16 19 3 4c20 24 37 51 46 81v2c3 11 4 22 4 33v3c0 10-1 19-3 28l-1 2c-5 18-13 35-25 50l-2 3c-11 13-23 27-37 38l-5 5c-9 9-17 9-30 9a9503 9503 0 0 1-106 0h-55a38705 38705 0 0 1-195 0h-103a492306 492306 0 0 0-14 0 17400 17400 0 0 0-131 0 668 668 0 0 0-9 0c-15 0-25 0-37-10a583 583 0 0 0-6-4c-31-24-61-61-67-101l-1-29v-3a3602 3602 0 0 1 0-18c0-48 8-90 29-133-16-6-33-10-50-14a3187 3187 0 0 1-21-5 8812 8812 0 0 0-15-4l-11-2a846 846 0 0 0-85-16l-3-1c-72-10-144-18-217-21h-2a1467 1467 0 0 0-83-2h-3l-116 3h-7a2333 2333 0 0 0-269 29 2221 2221 0 0 1-15 3c-51 11-103 24-153 40l4 26c2 13 5 26 6 40l1 3c7 53 0 104-32 147l-2 3c-12 16-28 29-44 41l-3 3c-12 8-26 14-39 21l-2 2c-6 2-10 1-16 1h-24l-21 1h-26a35611 35611 0 0 1-91 0 103790 103790 0 0 1-126 0h-3a44406 44406 0 0 0-207 0h-18a12402 12402 0 0 0-94 1 2954 2954 0 0 0-28 0h-19a480 480 0 0 0-10 0c-20 0-34-4-51-15l-3-2-13-9a269 269 0 0 0-5-3c-17-12-33-29-44-46l-1-2c-9-13-16-27-20-42l-1-2a144 144 0 0 1-5-49c-1-16 2-31 7-46l1-3c6-17 15-33 26-47l2-3c12-15 26-28 41-39l4-3c27-20 56-38 85-55l3-2 75-41 2-1 47-23 3-2 10-3-1-2c-40-74-61-162-64-246v-3l-1-68v-9l1-79v-9a1963 1963 0 0 1 2-42c4-73 24-147 40-218a307 307 0 0 0-23 13 777 777 0 0 1-48 26l-35 19-3 2-2 1a1943 1943 0 0 0-65 34c-67 35-138 60-213 71l-3 1a431 431 0 0 1-73 3c-42 0-77-7-108-37-14-15-23-32-29-51l-1-2a179 179 0 0 1-5-62c0-95 51-185 106-259l2-3 14-18 2-2a1118 1118 0 0 1 52-63 430 430 0 0 0 6-6l12-14 5-5 2-3a1795 1795 0 0 0 43-46l5-6 15-15 3-3 2-2 5-5 15-16 3-4 9-9 10-9a47504 47504 0 0 1 109-107c9-9 19-16 29-23l2-2c28-20 57-37 87-53l7-3 6-4 3-1 3-2 2-1 4-1v-2l-2-1-5-4-7-7-16-14-7-7c-15-13-28-27-42-41a8821 8821 0 0 0-20-20 5183 5183 0 0 0-4-4l-19-20a279 279 0 0 0-4-4l-1-2-2-2a290 290 0 0 1-20-22c-26-33-46-70-65-107l-2-4-25-60a1077 1077 0 0 0-8-20l-2-5a796 796 0 0 0-4-8l-5-19-6-20-13-43-1-7-16-72-1-2a2879 2879 0 0 1-6-33v-2c-7-34-7-34-8-51v-4c-2-21-2-43-2-64v-6a12897 12897 0 0 1 0-35c0-47 0-92 9-137l1-3a3477 3477 0 0 1 4-20l2-10c6-27 13-54 22-81a2061 2061 0 0 0 5-16c15-48 15-48 25-69l4-11 1-2 2-4a1267 1267 0 0 1 15-37l7-16 18-41a2625 2625 0 0 0 5-9 1195 1195 0 0 1 52-95l1-3c9-16 12-25 7-42-8-25-25-47-39-68l-2-3-4-5-1-3-2-3c-16-23-31-47-44-72l-1-3c-12-22-20-47-28-71l-2-7a836 836 0 0 1-26-105l-1-4-2-11v-2l-7-39-1-6a4981 4981 0 0 1-18-142v-6l-1-18v-3l-1-72a6598 6598 0 0 0 0-9 3303 3303 0 0 1 0-20c0-44 13-85 44-117 7-7 14-12 23-17l2-1c22-12 45-14 70-14h3c15 0 30 0 45 3l4 1c62 10 122 33 176 64a587 587 0 0 0 8 5l33 19a901 901 0 0 0 7 5 1531 1531 0 0 1 123 86 1427 1427 0 0 0 14 10 1485 1485 0 0 1 20 16l2 2 16 12 2 1 26 21 10 9a2683 2683 0 0 1 16 13l12 9v-15c0-28 4-55 8-83l3-14a9344 9344 0 0 1 4-26 4242 4242 0 0 0 2-18l12-63 1-8 3-11a1570 1570 0 0 0 5-22c14-73 33-145 62-213l2-4c15-34 31-69 54-100l1-2 20-23 2-2 16-14 2-2a2430 2430 0 0 1 7-5l3-2 2-2 2-2c4-3 7-4 13-4Zm827 41-2 1-17 16-6 5-11 12-2 2a2166 2166 0 0 0-4 4 1184 1184 0 0 1-5 5l-15 17a562 562 0 0 1-5 7l-16 20-2 3-19 28-2 3a1597 1597 0 0 0-60 92l-8 13-51 80-2 3-28 48-21 34-44 76c-21 39-21 39-34 53l-2 3c-12 14-12 14-20 16-5 0-8-3-12-6-23-24-37-61-50-91l-2-4a6676 6676 0 0 1-21-47l-2-4-1-2a4932 4932 0 0 1-8-18l-41-87-1-2-24-47a668 668 0 0 1-6-12c-8-14-15-28-25-40l-5-10c-3-8-9-15-14-22l-2-2a1090 1090 0 0 0-22-30l-3-3a568 568 0 0 0-16-21 393 393 0 0 1-20-23 281 281 0 0 1-7-7l-16-16a176 176 0 0 1-4-4c-25-23-53-36-87-36h-2c-20-1-33 7-48 19l-2 1c-45 37-69 101-88 154l-1 2c-20 56-34 114-46 172a1754 1754 0 0 1-5 23 1056 1056 0 0 0-18 102l-2 17-3 13c-4 27-7 54-7 81a524 524 0 0 1-6 71l-1 4c-4 23-4 23-9 32-3 2-6 2-10 2-13-4-24-12-34-20l-2-1-23-19a959 959 0 0 0-9-7l-16-13a3614 3614 0 0 1-17-14 1495 1495 0 0 0-29-24 1438 1438 0 0 1-34-26l-6-5-5-3a7377 7377 0 0 1-4-4l-33-24a890 890 0 0 1-11-8 1143 1143 0 0 0-37-27c-37-25-75-49-114-71l-3-1c-56-31-140-63-205-49-16 5-27 14-35 29-11 20-13 38-13 61v21l1 67v3a994 994 0 0 0 12 118c7 50 7 50 16 98l3 10v3l4 20a830 830 0 0 0 31 107c9 28 24 54 40 79l2 3 20 30c28 39 60 86 55 137-5 25-22 51-35 73-9 13-16 28-24 42a877 877 0 0 1-6 12 948 948 0 0 0-40 89 3913 3913 0 0 0-13 31l-1 4c-9 21-17 43-24 65l-1 3c-11 34-20 68-27 103a3238 3238 0 0 1-2 9 2769 2769 0 0 0-4 16v2l-1 3v1l-3 19v2l-2 23v3l-1 64v18c0 46 1 92 10 138l2 6a6410 6410 0 0 0 20 95l2 5a536 536 0 0 0 18 64 642 642 0 0 1 19 49 530 530 0 0 0 98 168l2 2a1139 1139 0 0 0 62 65l4 3 16 16 9 8 8 7 10 9a256 256 0 0 0 26 23l14 13 26 22 2 2c11 10 11 10 11 16-6 12-34 19-45 24-36 16-70 34-103 54a7737 7737 0 0 1-5 3c-30 18-57 40-81 65a113 113 0 0 1-8 6l-14 14-4 3-8 9-8 8a33497 33497 0 0 0-32 32 27693 27693 0 0 0-14 14l-9 9a5659 5659 0 0 0-31 32l-2 2-5 5a213 213 0 0 0-11 12l-7 7a181 181 0 0 0-10 11l-5 6a115 115 0 0 0-7 7 381 381 0 0 1-23 25l-7 7a299 299 0 0 0-19 23 278 278 0 0 0-19 22l-16 19a740 740 0 0 1-4 5c-48 61-95 132-109 209v3c-3 13-3 26-3 40v2c-1 23 2 44 18 62 19 17 42 17 67 17h3c73 0 143-20 210-49l3-1a898 898 0 0 0 92-46l34-19 5-3a10126 10126 0 0 0 18-10 7211 7211 0 0 1 63-35c18-11 36-21 53-33l2-1 12-8c24-16 24-16 34-16h3l5 1c17 31-8 96-15 128a3354 3354 0 0 0-32 155c-6 34-8 70-9 105v3l-1 74v7c0 38 1 75 7 113l1 7c5 36 11 73 23 108l1 2c10 30 25 55 44 80s19 25 18 33l-2 1-7 4c-10 7-21 12-32 17l-4 2-14 6c-34 16-69 32-101 51l-13 7c-11 5-21 12-32 18l-3 2-37 23-2 1c-19 13-37 26-54 41l-2 2c-17 16-30 42-31 66-1 30 8 55 29 76l3 3 2 2c62 68 188 72 273 76 100 4 200 1 480-82l2-2 2-2c20-19 30-48 31-75 1-34-7-69-13-102-9-43-9-43-3-53 6-8 20-11 29-14l5-1c34-11 69-21 104-30l2-1 35-8 4-1a1125 1125 0 0 1 119-22c73-10 146-14 219-18h2a5009 5009 0 0 1 107-2h3a1593 1593 0 0 1 103 2c91 5 183 14 332 46a2472 2472 0 0 0 17 4c20 5 41 10 61 17l3 1c13 3 26 7 38 12l3 1c15 5 15 5 19 9 2 7-1 14-4 20l-1 2-12 21c-27 42-36 84-36 134v2l1 27v2c1 6 2 11 5 16l1 3 12 17 1 2 12 13 3 3c29 28 73 42 112 52l2 1c29 7 58 13 88 15h2c34 2 67 2 100 2h3c141 4 141 4 314-63l6-5c19-17 35-38 37-64 2-39-32-76-57-103l-7-7a370 370 0 0 1-4-5l-31-31a4548 4548 0 0 1-15-15l-3-3a258 258 0 0 0-20-19l-10-9-7-7a300 300 0 0 0-26-22l-12-10c-26-22-35-47-38-81l-3-81c-2-107-4-215-80-592a2363 2363 0 0 1-6-20l-1-4-5-19c-1-7-3-12-6-19-23-55-23-55-15-78 4-10 9-13 19-17l7-2c28-9 54-25 79-41a747 747 0 0 1 22-13l2-1a2602 2602 0 0 1 27-17l11-7 24-17a2153 2153 0 0 1 6-5l31-22a2620 2620 0 0 1 7-5 1675 1675 0 0 0 27-21 1100 1100 0 0 1 41-32l2-1a1622 1622 0 0 0 39-35 381 381 0 0 1 5-4l30-30 8-8a5709 5709 0 0 0 6-6 4323 4323 0 0 1 17-18l9-9a260 260 0 0 0 21-24l15-18 7-10 15-19 3-4c50-67 95-137 135-210l2-3 41-82 2-4a802 802 0 0 0 61-291v-2c2-36 2-36-7-70l-1-3-13-18-5-6-5-3h-6a385 385 0 0 0-33 1 2000 2000 0 0 0-14 0c-40 0-69 18-103 39l-20 13a1922 1922 0 0 0-25 16l-17 10c-30 18-58 38-86 57a4499 4499 0 0 1-6 5l-40 29a847 847 0 0 1-6 4l-25 21a267 267 0 0 1-23 18l-2 2c-6 4-10 6-18 6-16-34 0-94 6-130 12-71 21-144 24-216v-9a791 791 0 0 0 1-23l1-69v-6a659 659 0 0 0-36-222l-19-58-4-11a5098 5098 0 0 0-12-35l-1-3c-10-29-22-59-34-88a3857 3857 0 0 1-3-8c-20-49-40-97-70-140-18-26-28-49-23-81l1-7 1-4 8-43 5-26v-3c15-77 28-154 20-682a83 83 0 0 0-54-37c-7 0-15 0-22 2h-3c-56 11-106 42-152 73a3265 3265 0 0 1-15 10l-4 3a5738 5738 0 0 1-7 4c-17 12-34 24-51 38a545 545 0 0 1-13 11l-19 15a742 742 0 0 1-6 5 210 210 0 0 0-21 19l-12 12-9 8-14 14a1502 1502 0 0 1-18 19l-9 9-12 13-8 9a267 267 0 0 0-14 15l-7 8a216 216 0 0 0-8 10l-14 16a184 184 0 0 0-6 7c-8 9-17 18-27 25l-1 1c-7 4-13 7-21 6-6-2-8-4-11-9-8-18-7-40-8-59v-2l-2-55-5-103v-3c-6-65-23-123-48-183l-1-2c-12-30-27-60-43-87a614 614 0 0 1-5-8c-10-17-22-34-35-49l-2-3-13-12-1-1c-51-42-107-24-153 15Z"/><path fill="#FEFEFE" d="m2432 2899 7 5 18 16a510 510 0 0 0 8 8 527 527 0 0 1 38 38l10 10a259 259 0 0 1 22 26l14 16 3 4 23 29 2 2c14 19 28 39 40 59l1 2 18 31 1 2a928 928 0 0 1 59 128l12 29a10993 10993 0 0 1 10 27l3 7 23 61 1 3 5 12a4531 4531 0 0 0 13 35l28 75a502 502 0 0 0 5 14 362 362 0 0 1 12 40l1 3 5 18c15 46 25 94 32 141v2c5 28 7 64-10 87-6 8-13 11-22 12-22 1-43-5-64-11-76-20-154-34-233-44l-2-1a2509 2509 0 0 0-271-21h-7a10634 10634 0 0 0-30 0c-49 0-98 1-147 4l-9 1-103 7h-3c-45 4-89 10-133 16l-3 1a1783 1783 0 0 0-201 42 1676 1676 0 0 1-36 9h-3a5620 5620 0 0 1-22 5l-41 11c-17 5-37 3-53-4-10-5-16-12-21-22l-1-2c-11-22-7-49-3-73 4-22 7-44 9-67a1562 1562 0 0 1 45-240c8-28 18-54 29-81l3-9c12-31 25-61 39-91l1-3 22-41a591 591 0 0 0 4-8c29-56 67-108 109-154a261 261 0 0 0 4-4 469 469 0 0 1 27-28l4-4 2-2 11-10 7-6a392 392 0 0 1 20-17l43-33a719 719 0 0 0 6-4c73-52 158-106 619-58Zm-487-1455c5 7 7 16 9 24v3c9 45 10 92 12 138v3l1 53v8a11881 11881 0 0 1 0 32c0 103-9 202-77 292l-1 2a1076 1076 0 0 1-9 11l-3 3a573 573 0 0 1-16 21l-7 8-27 31-6 6-24 24-3 2-19 16a767 767 0 0 0-4 4c-13 10-27 19-42 27l-2 1a202 202 0 0 1-13 7l-2 1c-46 22-97 32-147 36h-4c-89 8-186 2-326-46l-3-1c-27-13-52-30-75-51a349 349 0 0 0-6-5l-29-27-2-2-10-12-8-9a265 265 0 0 1-21-23c-56-68-89-156-107-316v-2c-2-45-2-92 6-136l1-4c1-4 2-6 5-9l22-7h4l10-2 10-2 13-2a3321 3321 0 0 0 32-6 6709 6709 0 0 1 97-18l8-2a5474 5474 0 0 1 39-6 3966 3966 0 0 1 211-31h4c47-6 47-6 68-6l3-1c3 1 6 1 8 3 4 5 4 10 5 17 2 24 12 46 31 62 22 18 46 25 74 25h2c21 0 37-3 53-16l2-2a124 124 0 0 0 42-88c0-6 1-10 5-14 15-11 41-8 58-8l65-2h2l67-4h3l5-1 16 1Zm1149-84c9 8 11 20 14 31l1 4a2586 2586 0 0 1 4 17c16 69 32 140 36 211v4l2 44v4c1 95-9 172-69 248l-2 3-13 15a409 409 0 0 0-8 10l-16 18a392 392 0 0 0-9 9 177 177 0 0 1-32 30 353 353 0 0 0-8 6c-9 9-20 15-31 22l-3 2c-44 27-90 43-141 55h-2l-2 1h-2c-14 3-28 4-42 5h-2l-67 1h-18c-100 0-201-6-295-83a534 534 0 0 0-6-5l-13-13-9-9a261 261 0 0 1-21-24l-14-18a539 539 0 0 0-5-6 384 384 0 0 1-34-50l-1-3a629 629 0 0 1-65-321l1-55v-2c1-23 5-45 9-67l92-11 7-1 41-4h3c13-2 13-2 18 0 3 6 5 13 6 19 6 25 17 47 35 65l2 2c15 17 39 25 62 26h14c11 0 21-1 31-7l2-1c7-3 13-8 19-13l3-2c23-21 43-54 47-85 0-7 2-13 4-20l1-3 2-7a11540 11540 0 0 1 164-15h3l116-10h2l180-18 9 1Z"/><path fill="#E8FE20" d="M1212 3934h4l8 2a4912 4912 0 0 0 24 4c26 5 52 10 78 12h3l32 1h3c25 0 50-2 75-4h3l11-1c29-3 29-3 36 3 3 3 4 6 5 10v2c9 37 22 110 5 145l-12 14-2 2c-7 7-15 12-23 16l-2 1c-57 30-131 36-194 41h-4c-92 8-185 0-358-44a141 141 0 0 1-4-4l-2-2c-6-6-9-13-9-21 1-21 16-38 30-51 45-40 113-65 168-89a11805 11805 0 0 0 65-28l3-1 13-5a335 335 0 0 0 6-3l4-2 4-1c9-3 21 1 30 3Zm1912-3h14c10 0 18 1 27 8l2 2 3 2 3 2a626 626 0 0 1 8 7l2 1a600 600 0 0 1 19 17l7 6 12 11a260 260 0 0 0 25 21l13 11 18 15a1627 1627 0 0 0 34 30c13 12 27 26 28 44 1 8 0 15-3 23l-1 2c-7 17-24 26-40 32-14 5-28 8-43 11l-3 1c-26 5-52 6-78 7h-2l-20 1h-4a2197 2197 0 0 1-87 1c-35 0-69-1-103-7a1723 1723 0 0 0-10-2l-43-8-3-1c-22-5-45-12-59-31-13-21-12-52-7-75 10-38 28-94 55-123l10-2h10l44-2h4l36-1h4a51363 51363 0 0 1 90-2l8-1a2451 2451 0 0 1 30 0ZM2120 2014h6c42-1 77 26 107 53a542 542 0 0 0 6 4 266 266 0 0 1 27 25l15 16 6 6 11 12 3 3c93 108 93 108 92 176 0 5-1 10-4 14-3 2-5 2-9 2-7-2-13-6-19-9l-2-1-29-19-3-2-27-20-15-12a904 904 0 0 1-20-15l-13-10-23-18-2-2c-7-5-15-11-21-18-25-24-56-43-91-42-34 2-61 23-86 43l-33 24a778 778 0 0 0-47 34l-9 6a2815 2815 0 0 0-4 4 920 920 0 0 1-38 25l-2 1c-8 5-15 8-24 7-4-2-6-4-9-8-4-11 0-23 5-34 4-9 10-17 16-25a821 821 0 0 0 4-6l35-48a1420 1420 0 0 0 10-13l30-38a724 724 0 0 0 7-9 637 637 0 0 1 39-45 772 772 0 0 0 6-6l16-16 7-6c22-20 52-33 82-33Z"/><path fill="#E8FE20" d="M2255 2312a1637 1637 0 0 0 16 12l2 1 7 5 53 39 2 1c32 25 32 25 33 35 0 4-4 6-8 9-10 7-25 7-37 8h-4l-39 2h-6l-96 3-79 2h-2l-45 5c-8 2-15 3-23 3l-57 12-69 16-4 1c-32 6-32 6-42 0-3-2-3-4-3-7-1-15 5-23 15-33l2-2 4-4a197 197 0 0 1 27-24 278 278 0 0 1 22-19l16-13a333 333 0 0 0 11-9 417 417 0 0 1 29-23l20-17 7-5 7-5 4-4a1136 1136 0 0 1 35-26l2-2c76-55 134-10 200 39Z"/></svg>